<svg width="24" height="24" viewBox="0 0 24 24" fill="none" xmlns="http://www.w3.org/2000/svg">
<path d="M0 20.084C0.043 20.614 0.23 21.147 0.718 21.862C1.298 22.711 2.294 23.177 3.021 22.429C3.511 21.924 8.815 12.653 11.371 9.13901C11.4411 9.03855 11.5345 8.9565 11.6431 8.89985C11.7518 8.8432 11.8725 8.81361 11.995 8.81361C12.1175 8.81361 12.2382 8.8432 12.3469 8.89985C12.4555 8.9565 12.5489 9.03855 12.619 9.13901C15.175 12.653 20.479 21.924 20.969 22.429C21.696 23.177 22.692 22.711 23.272 21.862C23.842 21.027 24 20.442 24 19.816C24 19.39 15.74 4.01801 14.908 2.73801C14.108 1.50801 13.864 1.24001 12.511 1.19601H11.479C10.126 1.24001 9.882 1.50701 9.081 2.73801C8.267 3.99101 0.33 18.758 0 19.77V20.084Z" fill="black"/>
</svg>
